<?xml version="1.0" encoding="UTF-8"?>
<svg width="155px" height="48px" viewBox="0 0 155 48" version="1.1" xmlns="http://www.w3.org/2000/svg" xmlns:xlink="http://www.w3.org/1999/xlink">
    <title>Group 3</title>
    <g id="Page-1" stroke="none" stroke-width="1" fill="none" fill-rule="evenodd">
        <g id="Group-3">
            <path d="M6.409713,-7.12377147e-16 L148.590287,2.58960077e-16 C150.819084,-1.50463262e-16 151.627299,0.232064028 152.442114,0.667831759 C153.256929,1.10359949 153.896401,1.74307093 154.332168,2.55788574 C154.767936,3.37270056 155,4.18091615 155,6.409713 L155,41.590287 C155,43.8190838 154.767936,44.6272994 154.332168,45.4421143 C153.896401,46.2569291 153.256929,46.8964005 152.442114,47.3321682 C151.627299,47.767936 150.819084,48 148.590287,48 L6.409713,48 C4.18091615,48 3.37270056,47.767936 2.55788574,47.3321682 C1.74307093,46.8964005 1.10359949,46.2569291 0.667831759,45.4421143 C0.232064028,44.6272994 -9.53484658e-16,43.8190838 1.64102823e-15,41.590287 L1.72640051e-16,6.409713 C-1.00308841e-16,4.18091615 0.232064028,3.37270056 0.667831759,2.55788574 C1.10359949,1.74307093 1.74307093,1.10359949 2.55788574,0.667831759 C3.37270056,0.232064028 4.18091615,4.13911637e-16 6.409713,-7.12377147e-16 Z" id="Rectangle" fill="#A2DEF1"></path>
            <path d="M35.2676378,32 L35.9718911,32 C36.324659,32 36.6549046,32.1733443 36.8552748,32.4636837 C37.055645,32.754023 37.3858906,32.9273673 37.7386584,32.9273673 L39.087637,32.9273673 C40.1438059,32.9273673 41,33.7835614 41,34.8397303 L41,35.2579914 L41,35.2579914 L41,39.5053276 L41,48 L34,48 L34,33.2676378 C34,32.5675408 34.5675408,32 35.2676378,32 Z" id="Rectangle" fill="#B3B3B3"></path>
            <g id="Group-2" transform="translate(33.000000, 34.000000)" fill="#D8D8D8" stroke="#979797">
                <rect id="Rectangle" x="0.5" y="0.5" width="6" height="1"></rect>
                <rect id="Rectangle" x="0.5" y="1.38235294" width="6" height="1"></rect>
                <rect id="Rectangle" x="0.5" y="2.26470588" width="6" height="1"></rect>
                <rect id="Rectangle" x="0.5" y="3.14705882" width="6" height="1"></rect>
                <rect id="Rectangle" x="0.5" y="4.02941176" width="6" height="1"></rect>
                <rect id="Rectangle" x="0.5" y="4.91176471" width="6" height="1"></rect>
            </g>
            <path d="M28.4487289,29 L29.2364484,29 C29.6493091,29 30.0347498,29.2067092 30.2631712,29.5506243 C30.4915926,29.8945395 30.8770332,30.1012487 31.289894,30.1012487 L32.8144423,30.1012487 C34.0214925,30.1012487 35,31.0797562 35,32.2868064 L35,32.8688648 L35,32.8688648 L35,37.9125765 L35,48 L27,48 L27,30.4487289 C27,29.648618 27.648618,29 28.4487289,29 Z" id="Rectangle" fill="#BEBEBE"></path>
            <g id="Group-2" transform="translate(27.000000, 31.000000)" fill="#D8D8D8" stroke="#979797">
                <rect id="Rectangle" x="0.5" y="0.5" width="6" height="1"></rect>
                <rect id="Rectangle" x="0.5" y="1.38235294" width="6" height="1"></rect>
                <rect id="Rectangle" x="0.5" y="2.26470588" width="6" height="1"></rect>
                <rect id="Rectangle" x="0.5" y="3.14705882" width="6" height="1"></rect>
                <rect id="Rectangle" x="0.5" y="4.02941176" width="6" height="1"></rect>
                <rect id="Rectangle" x="0.5" y="4.91176471" width="6" height="1"></rect>
            </g>
            <g id="Group-2" transform="translate(27.000000, 36.000000)" fill="#D8D8D8" stroke="#979797">
                <rect id="Rectangle" x="0.5" y="0.5" width="6" height="1"></rect>
                <rect id="Rectangle" x="0.5" y="1.38235294" width="6" height="1"></rect>
                <rect id="Rectangle" x="0.5" y="2.26470588" width="6" height="1"></rect>
                <rect id="Rectangle" x="0.5" y="3.14705882" width="6" height="1"></rect>
                <rect id="Rectangle" x="0.5" y="4.02941176" width="6" height="1"></rect>
                <rect id="Rectangle" x="0.5" y="4.91176471" width="6" height="1"></rect>
            </g>
            <path d="M20.62982,26 L21.5008503,26 C21.9738846,26 22.414581,26.2401029 22.6710676,26.637565 C22.9275541,27.0350271 23.3682505,27.2751301 23.8412848,27.2751301 L25.5412476,27.2751301 C26.899179,27.2751301 28,28.375951 28,29.7338825 L28,30.4797382 L28,30.4797382 L28,36.3198254 L28,48 L19,48 L19,27.62982 C19,26.7296953 19.7296953,26 20.62982,26 Z" id="Rectangle" fill="#D8D8D8"></path>
            <g id="Group-2" transform="translate(20.000000, 40.000000)" fill="#D8D8D8" stroke="#979797">
                <rect id="Rectangle" x="0.5" y="0.5" width="6" height="1"></rect>
                <rect id="Rectangle" x="0.5" y="1.38235294" width="6" height="1"></rect>
                <rect id="Rectangle" x="0.5" y="2.26470588" width="6" height="1"></rect>
                <rect id="Rectangle" x="0.5" y="3.14705882" width="6" height="1"></rect>
                <rect id="Rectangle" x="0.5" y="4.02941176" width="6" height="1"></rect>
                <rect id="Rectangle" x="0.5" y="4.91176471" width="6" height="1"></rect>
            </g>
            <path d="M9.71573312,14 L10.4196429,14 L10.4196429,14 L10.5000479,14.126587 C10.8669979,14.704301 11.5038767,15.0542636 12.1882784,15.0542636 L14.8117216,15.0542636 C15.4961233,15.0542636 16.1330021,14.704301 16.4999521,14.126587 L16.5803571,14 L16.5803571,14 L17.2706648,14 C17.8229495,14.0001933 18.270508,14.4480652 18.2703147,15.00035 C18.2703094,15.0157196 18.2699496,15.0310871 18.2693024,15.0464432 C18.0421389,20.0909158 18.1488,25.4087681 18.5892857,31 C19.0603451,36.9793133 19.8639165,42.64598 21,48 L6,48 C7.18534506,42.0206867 7.98891649,36.35402 8.41071429,31 C8.80818163,25.9548145 8.91039094,20.6320107 8.71734221,15.0315885 C8.69980023,14.4795824 9.13314801,14.0179466 9.6851571,14.0004991 C9.69534597,14.0001771 9.70553917,14.0000109 9.71573312,14 Z" id="Rectangle" fill="#E5E5E5"></path>
            <rect id="Rectangle" fill="#B5DFFF" x="11" y="16" width="5" height="1"></rect>
            <g id="Group-2" transform="translate(20.000000, 30.000000)" fill="#D8D8D8" stroke="#979797">
                <rect id="Rectangle" x="0.5" y="0.5" width="6" height="1"></rect>
                <rect id="Rectangle" x="0.5" y="1.38235294" width="6" height="1"></rect>
                <rect id="Rectangle" x="0.5" y="2.26470588" width="6" height="1"></rect>
                <rect id="Rectangle" x="0.5" y="3.14705882" width="6" height="1"></rect>
                <rect id="Rectangle" x="0.5" y="4.02941176" width="6" height="1"></rect>
                <rect id="Rectangle" x="0.5" y="4.91176471" width="6" height="1"></rect>
            </g>
            <g id="Group-2" transform="translate(20.000000, 35.000000)" fill="#D8D8D8" stroke="#979797">
                <rect id="Rectangle" x="0.5" y="0.5" width="6" height="1"></rect>
                <rect id="Rectangle" x="0.5" y="1.38235294" width="6" height="1"></rect>
                <rect id="Rectangle" x="0.5" y="2.26470588" width="6" height="1"></rect>
                <rect id="Rectangle" x="0.5" y="3.14705882" width="6" height="1"></rect>
                <rect id="Rectangle" x="0.5" y="4.02941176" width="6" height="1"></rect>
                <rect id="Rectangle" x="0.5" y="4.91176471" width="6" height="1"></rect>
            </g>
            <g id="Group" transform="translate(12.000000, 17.000000)" fill="#B5DFFF">
                <rect id="Rectangle" x="0" y="0" width="4" height="1"></rect>
                <rect id="Rectangle" x="0" y="0.857142857" width="4" height="1"></rect>
                <rect id="Rectangle" x="0" y="1.71428571" width="4" height="1"></rect>
                <rect id="Rectangle" x="0" y="2.57142857" width="4" height="1"></rect>
                <rect id="Rectangle" x="0" y="3.42857143" width="4" height="1"></rect>
            </g>
            <g id="Group" transform="translate(12.000000, 21.000000)" fill="#B5DFFF">
                <rect id="Rectangle" x="0" y="0" width="4" height="1"></rect>
                <rect id="Rectangle" x="0" y="0.857142857" width="4" height="1"></rect>
                <rect id="Rectangle" x="0" y="1.71428571" width="4" height="1"></rect>
                <rect id="Rectangle" x="0" y="2.57142857" width="4" height="1"></rect>
                <rect id="Rectangle" x="0" y="3.42857143" width="4" height="1"></rect>
            </g>
            <g id="Group" transform="translate(12.000000, 25.000000)" fill="#B5DFFF">
                <rect id="Rectangle" x="0" y="0" width="4" height="1"></rect>
                <rect id="Rectangle" x="0" y="0.857142857" width="4" height="1"></rect>
                <rect id="Rectangle" x="0" y="1.71428571" width="4" height="1"></rect>
                <rect id="Rectangle" x="0" y="2.57142857" width="4" height="1"></rect>
                <rect id="Rectangle" x="0" y="3.42857143" width="4" height="1"></rect>
            </g>
            <g id="Group" transform="translate(10.000000, 35.000000)" fill="#B5DFFF">
                <rect id="Rectangle" x="0" y="0" width="7" height="1"></rect>
                <rect id="Rectangle" x="0" y="0.857142857" width="7" height="1"></rect>
                <rect id="Rectangle" x="0" y="1.71428571" width="7" height="1"></rect>
                <rect id="Rectangle" x="0" y="2.57142857" width="7" height="1"></rect>
                <rect id="Rectangle" x="0" y="3.42857143" width="7" height="1"></rect>
            </g>
            <g id="Group" transform="translate(9.000000, 39.000000)" fill="#B5DFFF">
                <rect id="Rectangle" x="0" y="0" width="9" height="1"></rect>
                <rect id="Rectangle" x="0" y="0.857142857" width="9" height="1"></rect>
                <rect id="Rectangle" x="0" y="1.71428571" width="9" height="1"></rect>
                <rect id="Rectangle" x="0" y="2.57142857" width="9" height="1"></rect>
                <rect id="Rectangle" x="0" y="3.42857143" width="9" height="1"></rect>
            </g>
            <polygon id="Triangle" fill="#C2C2C2" points="12 31 13 33 11 33"></polygon>
            <polygon id="Triangle" fill="#C2C2C2" points="14 31 15 33 13 33"></polygon>
            <polygon id="Triangle" fill="#C2C2C2" points="16 31 17 33 15 33"></polygon>
            <g id="Made-in-Yokohama" transform="translate(60.000000, 15.000000)" fill-rule="nonzero">
                <path d="M4.81520658,2.53851262 C5.00810061,2.06034404 5.35816756,1.05478364 5.4939078,0.60474262 C5.46533091,1.0829112 5.37960023,2.34161968 5.37960023,3.34014819 L5.37960023,5.28798198 C5.37960023,5.47784303 5.5224847,5.56925761 5.71537873,5.56925761 C5.90112854,5.56925761 6.04401301,5.47784303 6.04401301,5.28798198 L6.04401301,0.421913456 C6.04401301,0.168765382 5.8582632,0.00703189093 5.59392693,0.00703189093 C5.2795811,0.00703189093 5.11526396,0.112510255 5.00095639,0.393785892 L3.70785195,3.61439194 C3.54353481,4.01520972 3.32920811,4.62698423 3.25776588,4.93638743 C3.19346787,4.63401612 2.95770849,3.97301837 2.81482402,3.62845572 L1.50028692,0.37972211 C1.39312357,0.119542146 1.24309487,0.00703189093 0.928749044,0.00703189093 C0.657268554,0.00703189093 0.471518745,0.168765382 0.471518745,0.421913456 L0.471518745,5.28798198 C0.471518745,5.47784303 0.60725899,5.56925761 0.800153022,5.56925761 C1.00019128,5.56925761 1.13593152,5.47784303 1.13593152,5.28798198 L1.13593152,3.3331163 C1.13593152,2.34161968 1.05020084,1.06884742 1.02876817,0.611774511 C1.16450842,1.04775175 1.50743114,2.06737593 1.71461362,2.57367208 L2.79339135,5.23875874 C2.89341048,5.48487492 3.02915073,5.56925761 3.25062165,5.56925761 C3.4792368,5.56925761 3.60783282,5.48487492 3.70785195,5.24579063 L4.81520658,2.53851262 Z" id="Path" fill="#535353"></path>
                <path d="M9.59469204,3.03777688 C8.83026014,3.05184066 8.45876052,3.09403201 8.06582823,3.19951037 C7.38712701,3.38233954 6.9870505,3.80425299 6.9870505,4.46525074 C6.9870505,5.1895355 7.46571347,5.62551274 8.25157804,5.62551274 C8.95885616,5.62551274 9.3375,5.351269 9.60898049,5.04889769 C9.61612471,5.1895355 9.63041316,5.31610954 9.65184583,5.40049223 C9.68042272,5.52706627 9.80901875,5.56925761 9.95190321,5.56925761 C9.97333588,5.56925761 9.99476855,5.56925761 10.0162012,5.56925761 C10.1948068,5.55519383 10.3019702,5.45674736 10.3019702,5.3442371 C10.3019702,5.32314143 10.2948259,5.29501387 10.2876817,5.2739182 C10.2448164,5.14031227 10.2090953,4.90122798 10.2090953,4.65511179 L10.2090953,2.73540557 C10.2090953,1.90564244 9.73757651,1.53295222 8.78025057,1.53295222 C8.20156848,1.53295222 7.88007842,1.65249437 7.6300306,1.84235542 C7.46571347,1.96892946 7.27996366,2.1728543 7.20852142,2.39084292 C7.2013772,2.41897048 7.19423298,2.44709804 7.19423298,2.47522561 C7.19423298,2.60179964 7.2942521,2.70024612 7.42999235,2.74243746 C7.48000191,2.76353313 7.5371557,2.77056503 7.59430949,2.77056503 C7.71576129,2.77056503 7.82292464,2.72134179 7.8729342,2.58773586 C7.994386,2.26426888 8.25157804,2.06737593 8.77310635,2.06737593 C9.3375,2.06737593 9.59469204,2.27130077 9.59469204,2.73540557 L9.59469204,3.03777688 Z M9.59469204,4.01520972 C9.59469204,4.28242157 9.54468248,4.4160275 9.40894223,4.58479288 C9.18032708,4.86606852 8.80882747,5.08405714 8.35874139,5.08405714 C7.93008799,5.08405714 7.64431905,4.83794096 7.64431905,4.47228263 C7.64431905,4.13475187 7.79434774,3.91676325 8.08011668,3.77612543 C8.36588562,3.63548761 8.7588179,3.5651687 9.59469204,3.54407303 L9.59469204,4.01520972 Z" id="Shape" fill="#535353"></path>
                <path d="M14.0812643,1.82125975 C14.0812643,1.97596135 14.0955528,2.17988619 14.1098412,2.34161968 C13.8597934,1.84235542 13.4597169,1.53295222 12.7953041,1.53295222 C11.7379591,1.53295222 11.0878347,2.3275559 11.0878347,3.55813681 C11.0878347,4.82387718 11.7451033,5.63254463 12.7881599,5.63254463 C13.4525727,5.63254463 13.8597934,5.33017332 14.102697,4.83794096 C14.0955528,4.93638743 14.0812643,5.08405714 14.0812643,5.16140794 L14.0812643,5.30907765 C14.0812643,5.45674736 14.1812835,5.56925761 14.388466,5.56925761 C14.5885042,5.56925761 14.7171002,5.47784303 14.7171002,5.28798198 L14.7171002,0.288307528 C14.7171002,0.098446473 14.5956484,0.00703189093 14.3956102,0.00703189093 C14.2170046,0.00703189093 14.0812643,0.098446473 14.0812643,0.288307528 L14.0812643,1.82125975 Z M12.8810348,2.08143971 C13.6668994,2.08143971 14.0955528,2.7143099 14.0955528,3.57220059 C14.0955528,4.44415507 13.6311783,5.08405714 12.8810348,5.08405714 C12.1594682,5.08405714 11.7451033,4.48634641 11.7451033,3.5651687 C11.7451033,2.67211855 12.1594682,2.08143971 12.8810348,2.08143971 Z" id="Shape" fill="#535353"></path>
                <path d="M18.7035769,3.69877463 C18.9250478,3.69877463 19.0607881,3.5651687 19.0607881,3.31202063 C19.0607881,3.29092495 19.0607881,3.27686117 19.0607881,3.2557655 C18.9893458,2.33458779 18.4035195,1.53295222 17.3604629,1.53295222 C16.1959545,1.53295222 15.5529744,2.38381102 15.5529744,3.60032815 C15.5529744,4.81684529 16.2316756,5.63254463 17.4033282,5.63254463 C18.3320773,5.63254463 18.7464422,5.16843983 18.9750574,4.70433503 C19.0036343,4.66214368 19.0107785,4.61995234 19.0107785,4.57776099 C19.0107785,4.45118696 18.9107594,4.36680427 18.7893076,4.33164481 C18.739298,4.31758103 18.6892884,4.30351725 18.6392789,4.30351725 C18.5392598,4.30351725 18.4463849,4.35274048 18.3820868,4.47931452 C18.2106255,4.85200474 17.9248565,5.10515281 17.4104725,5.10515281 C16.6388963,5.10515281 16.2030987,4.56369721 16.1888103,3.69877463 L18.7035769,3.69877463 Z M16.2102429,3.18544659 C16.3031178,2.49632128 16.6746174,2.04628026 17.3604629,2.04628026 C18.0177314,2.04628026 18.3249331,2.5596083 18.4106637,3.05887255 C18.4106637,3.07293634 18.4106637,3.08700012 18.4106637,3.09403201 C18.4106637,3.15731903 18.3820868,3.18544659 18.3035004,3.18544659 L16.2102429,3.18544659 Z" id="Shape" fill="#535353"></path>
                <path d="M22.2243249,5.28798198 C22.2243249,5.47784303 22.3502508,5.56925761 22.5576582,5.56925761 C22.7576582,5.56925761 22.8983989,5.47784303 22.8983989,5.28798198 L22.8983989,1.8634511 C22.8983989,1.68062193 22.7576582,1.58920735 22.5576582,1.58920735 C22.3502508,1.58920735 22.2243249,1.68062193 22.2243249,1.8634511 L22.2243249,5.28798198 Z M22.5650656,0 C22.2835841,0 22.0613619,0.203924837 22.0613619,0.471136692 C22.0613619,0.745380438 22.2835841,0.949305275 22.5650656,0.949305275 C22.8391397,0.949305275 23.0613619,0.745380438 23.0613619,0.471136692 C23.0613619,0.203924837 22.8391397,0 22.5650656,0 Z" id="Shape" fill="#535353"></path>
                <path d="M27.1766259,2.90417095 C27.1766259,2.03924837 26.7193956,1.53295222 25.869233,1.53295222 C25.1905318,1.53295222 24.7618783,1.84938731 24.5118305,2.34865157 C24.5189748,2.21504564 24.5404074,2.14472673 24.5404074,2.05331215 L24.5404074,1.8634511 C24.5404074,1.68062193 24.4118114,1.58920735 24.2260616,1.58920735 C24.0260233,1.58920735 23.8902831,1.68062193 23.8902831,1.8634511 L23.8902831,5.28798198 C23.8902831,5.47784303 24.0188791,5.56925761 24.2189174,5.56925761 C24.4046672,5.56925761 24.5404074,5.47784303 24.5404074,5.28798198 L24.5404074,3.31905252 C24.5404074,3.04480877 24.6118497,2.84088393 24.7904552,2.60179964 C25.0333588,2.27130077 25.3548489,2.10253539 25.740637,2.10253539 C26.2764537,2.10253539 26.5193573,2.44006615 26.5193573,3.03777688 L26.5193573,5.28798198 C26.5193573,5.47784303 26.6550976,5.56925761 26.8479916,5.56925761 C27.0337414,5.56925761 27.1766259,5.47784303 27.1766259,5.28798198 L27.1766259,2.90417095 Z" id="Path" fill="#535353"></path>
                <path d="M6.79495027,14.2651023 L9.20811018,10.5147605 C10.1447972,9.061503 10.7480872,8.57708385 11.7800306,8.46769888 L11.7800306,8.06141185 L7.58875287,8.06141185 L7.58875287,8.46769888 C8.06503443,8.49895173 8.239671,8.53020458 8.50956389,8.6083367 C8.82708493,8.71772167 9.0334736,8.95211803 9.0334736,9.23339367 C9.0334736,9.51466931 8.87471308,9.90532991 8.58894415,10.3897491 L6.44567712,13.7650567 L4.3024101,10.2491112 C3.88963275,9.59280143 3.79437643,9.37403149 3.79437643,9.10838227 C3.79437643,8.68646882 4.14364958,8.51457815 5.00095639,8.46769888 L5.00095639,8.06141185 L0,8.06141185 L0,8.46769888 C0.746174445,8.56145742 1.09544759,8.85835949 1.80986993,10.0147149 L4.7310635,14.7495214 L4.7310635,17.7185421 C4.7310635,19.1561731 4.58817904,19.2968109 3.1117062,19.3436902 L3.1117062,19.7499772 L8.41430757,19.7499772 L8.41430757,19.3436902 C6.93783474,19.2968109 6.79495027,19.1561731 6.79495027,17.7185421 L6.79495027,14.2651023 Z" id="Path" fill="#F87F7F"></path>
                <path d="M11.0021041,15.7339862 C11.0021041,16.9372208 11.3990054,18.046697 12.0975516,18.8123918 C12.7643458,19.5468337 13.8915455,20 15.0822494,20 C16.3364575,20 17.4954093,19.5312073 18.2257077,18.7342596 C18.8766259,18.0154441 19.2735272,16.8590887 19.2735272,15.6402276 C19.2735272,13.0462412 17.6541699,11.3585874 15.1616297,11.3585874 C13.9550497,11.3585874 12.8754782,11.7648744 12.192808,12.4680635 C11.4466335,13.2493847 11.0021041,14.4526194 11.0021041,15.7339862 Z M13.1453711,15.655854 C13.1453711,14.2963551 13.3041316,13.296264 13.6534047,12.6243277 C13.9232976,12.04615 14.4789594,11.7179951 15.1298776,11.7179951 C16.5110941,11.7179951 17.1461362,12.9681091 17.1461362,15.7027333 C17.1461362,18.4217311 16.5269702,19.6405922 15.1457536,19.6405922 C13.7804132,19.6405922 13.1453711,18.3592255 13.1453711,15.655854 Z" id="Shape" fill="#F87F7F"></path>
                <path d="M23.4330528,16.6559452 L24.3221117,15.6714805 L25.8462127,18.3592255 C25.9573451,18.562369 26.3859985,19.4061959 26.544759,19.7499772 L29.4659526,19.7499772 L29.4659526,19.4061959 C28.7356542,19.2499316 28.4022571,18.968656 27.8148432,17.9998177 L25.6080719,14.2651023 L26.1954858,13.6244189 C26.86228,12.9056034 27.1798011,12.6399542 27.7195868,12.3586785 C28.1641163,12.1242822 28.5451415,12.0148972 29.0531752,11.9523915 L29.0531752,11.5929837 L24.9571538,11.5929837 L24.9571538,11.9523915 C25.7192043,11.9992708 26.0526014,12.2024143 26.0526014,12.6243277 C26.0526014,12.9056034 25.8779648,13.2337583 25.5604438,13.6087925 L23.4330528,16.0152618 L23.4330528,11.0929382 C23.4330528,10.0459677 23.4648049,9.04587658 23.5283091,7.88952118 L20.3054705,8.06141185 L20.3054705,8.42081961 C21.4009181,8.42081961 21.5120505,8.56145742 21.5120505,9.93658276 L21.5120505,17.8123006 C21.5120505,19.2030524 21.4009181,19.3593166 20.3213466,19.374943 L20.3213466,19.7499772 L24.6237567,19.7499772 L24.6237567,19.374943 C23.5441852,19.3593166 23.4330528,19.2186788 23.4330528,17.8123006 L23.4330528,16.6559452 Z" id="Path" fill="#F87F7F"></path>
                <path d="M30.2597552,15.7339862 C30.2597552,16.9372208 30.6566565,18.046697 31.3552028,18.8123918 C32.0219969,19.5468337 33.1491966,20 34.3399005,20 C35.5941086,20 36.7530604,19.5312073 37.4833588,18.7342596 C38.134277,18.0154441 38.5311783,16.8590887 38.5311783,15.6402276 C38.5311783,13.0462412 36.911821,11.3585874 34.4192808,11.3585874 C33.2127008,11.3585874 32.1331293,11.7648744 31.4504591,12.4680635 C30.7042846,13.2493847 30.2597552,14.4526194 30.2597552,15.7339862 Z M32.4030222,15.655854 C32.4030222,14.2963551 32.5617827,13.296264 32.9110559,12.6243277 C33.1809487,12.04615 33.7366106,11.7179951 34.3875287,11.7179951 C35.7687452,11.7179951 36.4037873,12.9681091 36.4037873,15.7027333 C36.4037873,18.4217311 35.7846213,19.6405922 34.4034047,19.6405922 C33.0380643,19.6405922 32.4030222,18.3592255 32.4030222,15.655854 Z" id="Shape" fill="#F87F7F"></path>
                <path d="M42.70658,11.0929382 C42.70658,9.84282422 42.722456,9.09275585 42.8018363,7.88952118 L39.5472456,8.06141185 L39.5472456,8.42081961 C40.6585692,8.42081961 40.7697016,8.56145742 40.7697016,9.93658276 L40.7697016,17.8123006 C40.7697016,19.2186788 40.6585692,19.3593166 39.5631217,19.374943 L39.5631217,19.7499772 L43.8972839,19.7499772 L43.8972839,19.374943 C42.8177123,19.3593166 42.70658,19.2030524 42.70658,17.8123006 L42.70658,14.8120271 C42.70658,14.1713437 42.8335884,13.6712982 43.1352334,13.1556262 C43.5480107,12.4368106 44.1195486,12.0774029 44.849847,12.0774029 C45.453137,12.0774029 45.8500383,12.3117993 46.072303,12.7962184 C46.2310635,13.1243733 46.2945677,13.6712982 46.2945677,14.4838722 L46.2945677,17.8123006 C46.2945677,19.2186788 46.1834353,19.3593166 45.1038638,19.374943 L45.1038638,19.7499772 L49.438026,19.7499772 L49.438026,19.374943 C48.3425784,19.3593166 48.2314461,19.2186788 48.2314461,17.8123006 L48.2314461,14.3744873 C48.2314461,13.4837811 48.1203137,12.9056034 47.8821729,12.4524371 C47.4852716,11.7179951 46.7390972,11.3585874 45.5960214,11.3585874 C44.2783091,11.3585874 43.5003826,11.7805008 42.70658,12.9368562 L42.70658,11.0929382 Z" id="Path" fill="#F87F7F"></path>
                <path d="M58.4556236,19.3280638 C57.4395562,19.3124373 57.376052,19.2186788 57.376052,17.4997721 C57.376052,17.3903871 57.376052,17.0934851 57.3919281,16.6559452 L57.4078041,15.2964463 L57.4236802,13.9369474 C57.4236802,12.9681091 57.2331676,12.4055578 56.8045142,11.9992708 C56.3282326,11.5617309 55.550306,11.3585874 54.4548585,11.3585874 C53.3752869,11.3585874 52.5179801,11.5461045 51.8511859,11.9523915 C51.2320199,12.3274257 50.8668707,12.8587241 50.8668707,13.405649 C50.8668707,13.8744417 51.2478959,14.1244645 51.9781943,14.1244645 C52.6449885,14.1244645 52.9148814,13.921321 52.9466335,13.3587697 C52.9942617,12.7649656 53.0418898,12.5149428 53.2006503,12.2492936 C53.4229151,11.8742594 53.7563122,11.7179951 54.2643458,11.7179951 C55.216909,11.7179951 55.5026779,12.2024143 55.5026779,13.8588153 L55.5026779,14.8745328 C54.5183627,14.9214121 53.6769319,15.0307971 52.8990054,15.1714349 C51.2002678,15.4995898 50.358837,16.3277903 50.358837,17.6716628 C50.358837,19.078041 51.2955241,19.9687472 52.803749,19.9687472 C53.8356924,19.9687472 54.6929992,19.5780865 55.5185539,18.7030068 C55.5979342,19.6562187 55.7566947,19.890615 56.2647284,19.890615 C56.6775057,19.890615 57.5189365,19.8124829 58.4556236,19.7030979 L58.4556236,19.3280638 Z M55.5026779,16.4371753 C55.5026779,17.3278814 55.4232976,17.8435534 55.216909,18.2498405 C54.915264,18.8905239 54.311974,19.2811845 53.6769319,19.2811845 C52.8990054,19.2811845 52.3909717,18.5467425 52.3909717,17.4372664 C52.3909717,15.984009 53.2006503,15.4058313 55.5026779,15.2339406 L55.5026779,16.4371753 Z" id="Shape" fill="#F87F7F"></path>
                <path d="M62.4722647,11.3898402 L59.3764346,11.5929837 L59.3764346,11.9680179 C60.424254,11.9836443 60.5512624,12.155535 60.5512624,13.4681546 L60.5512624,17.8123006 C60.5512624,19.2186788 60.4401301,19.3593166 59.3446825,19.374943 L59.3446825,19.7499772 L63.6470926,19.7499772 L63.6470926,19.374943 C62.5992731,19.3593166 62.4881408,19.2186788 62.4881408,17.8123006 L62.4881408,14.6401365 C62.4881408,13.2337583 63.3613236,12.0774029 64.4091431,12.0774029 C65.2823259,12.0774029 65.6951033,12.8118448 65.6951033,14.3744873 L65.6951033,17.8123006 C65.6951033,19.2030524 65.5839709,19.3593166 64.5361515,19.374943 L64.5361515,19.7499772 L68.7909334,19.7499772 L68.7909334,19.374943 C67.7272379,19.3593166 67.6161056,19.2030524 67.6161056,17.8123006 L67.6161056,14.5151251 C67.6161056,13.9369474 67.7748661,13.4369018 68.1082632,12.9368562 C68.5051645,12.3430521 68.949694,12.0774029 69.5212318,12.0774029 C70.4579189,12.0774029 70.8389441,12.7337127 70.8389441,14.3901137 L70.8389441,17.8123006 C70.8389441,19.2030524 70.7278118,19.3593166 69.6799923,19.374943 L69.6799923,19.7499772 L73.9824024,19.7499772 L73.9824024,19.374943 C72.8869549,19.3593166 72.7758225,19.2030524 72.7758225,17.8123006 L72.7758225,14.3744873 C72.7758225,13.3118904 72.6488141,12.7337127 72.2995409,12.26492 C71.8708875,11.6711159 71.1564652,11.3585874 70.2356542,11.3585874 C69.0449503,11.3585874 68.2035195,11.8586329 67.5049732,12.9993619 C67.2192043,11.8898858 66.4730298,11.3585874 65.2505738,11.3585874 C64.0598699,11.3585874 63.1231829,11.9055122 62.4881408,12.9368562 L62.4722647,11.3898402 Z" id="Path" fill="#F87F7F"></path>
                <path d="M83,19.3280638 C81.9839327,19.3124373 81.9204285,19.2186788 81.9204285,17.4997721 C81.9204285,17.3903871 81.9204285,17.0934851 81.9363045,16.6559452 L81.9521806,15.2964463 L81.9680566,13.9369474 C81.9680566,12.9681091 81.777544,12.4055578 81.3488906,11.9992708 C80.872609,11.5617309 80.0946825,11.3585874 78.9992349,11.3585874 C77.9196634,11.3585874 77.0623565,11.5461045 76.3955624,11.9523915 C75.7763963,12.3274257 75.4112471,12.8587241 75.4112471,13.405649 C75.4112471,13.8744417 75.7922724,14.1244645 76.5225708,14.1244645 C77.189365,14.1244645 77.4592578,13.921321 77.4910099,13.3587697 C77.5386381,12.7649656 77.5862663,12.5149428 77.7450268,12.2492936 C77.9672915,11.8742594 78.3006886,11.7179951 78.8087223,11.7179951 C79.7612854,11.7179951 80.0470543,12.2024143 80.0470543,13.8588153 L80.0470543,14.8745328 C79.0627391,14.9214121 78.2213083,15.0307971 77.4433818,15.1714349 C75.7446442,15.4995898 74.9032135,16.3277903 74.9032135,17.6716628 C74.9032135,19.078041 75.8399005,19.9687472 77.3481255,19.9687472 C78.3800689,19.9687472 79.2373757,19.5780865 80.0629304,18.7030068 C80.1423106,19.6562187 80.3010712,19.890615 80.8091048,19.890615 C81.2218822,19.890615 82.0633129,19.8124829 83,19.7030979 L83,19.3280638 Z M80.0470543,16.4371753 C80.0470543,17.3278814 79.9676741,17.8435534 79.7612854,18.2498405 C79.4596404,18.8905239 78.8563504,19.2811845 78.2213083,19.2811845 C77.4433818,19.2811845 76.9353481,18.5467425 76.9353481,17.4372664 C76.9353481,15.984009 77.7450268,15.4058313 80.0470543,15.2339406 L80.0470543,16.4371753 Z" id="Shape" fill="#F87F7F"></path>
            </g>
        </g>
    </g>
</svg>